<svg width="14" height="15" viewBox="0 0 14 15" fill="none" xmlns="http://www.w3.org/2000/svg">
<path d="M9.84091 1.96745C10.0022 1.80613 10.1938 1.67817 10.4045 1.59086C10.6153 1.50355 10.8412 1.45862 11.0694 1.45862C11.2975 1.45862 11.5234 1.50355 11.7342 1.59086C11.9449 1.67817 12.1365 1.80613 12.2978 1.96745C12.4591 2.12877 12.5871 2.32029 12.6744 2.53106C12.7617 2.74184 12.8066 2.96775 12.8066 3.19589C12.8066 3.42403 12.7617 3.64994 12.6744 3.86071C12.5871 4.07149 12.4591 4.263 12.2978 4.42432L4.00585 12.7163L0.627647 13.6376L1.54897 10.2594L9.84091 1.96745Z" stroke="#5D5FEF" stroke-linecap="round" stroke-linejoin="round"/>
</svg>
