<svg width="11" height="14" viewBox="0 0 11 14" fill="none" xmlns="http://www.w3.org/2000/svg">
<path d="M2.97748 3.45773V2.22929C2.97748 1.90349 3.10691 1.59103 3.33728 1.36065C3.56766 1.13028 3.88012 1.00085 4.20592 1.00085H6.66279C6.98859 1.00085 7.30105 1.13028 7.53143 1.36065C7.7618 1.59103 7.89123 1.90349 7.89123 2.22929V3.45773M9.73388 3.45773V12.0568C9.73388 12.3826 9.60446 12.695 9.37408 12.9254C9.1437 13.1558 8.83125 13.2852 8.50544 13.2852H2.36327C2.03746 13.2852 1.72501 13.1558 1.49463 12.9254C1.26425 12.695 1.13483 12.3826 1.13483 12.0568V3.45773H9.73388Z" stroke="#5D5FEF" stroke-linecap="round" stroke-linejoin="round"/>
</svg>
