<svg width="102" height="63" viewBox="0 0 102 63" fill="none" xmlns="http://www.w3.org/2000/svg">
<path d="M3.32598 1C2.03377 1 1 2.03122 1 3.32024C1 4.60926 2.03377 5.64047 3.32598 5.64047C4.61819 5.64047 5.65196 4.60926 5.65196 3.32024C5.65196 2.03122 4.61819 1 3.32598 1Z" fill="white"/>
<path d="M101.707 55.7071C102.098 55.3166 102.098 54.6834 101.707 54.2929L95.3431 47.9289C94.9526 47.5384 94.3195 47.5384 93.9289 47.9289C93.5384 48.3195 93.5384 48.9526 93.9289 49.3431L99.5858 55L93.9289 60.6569C93.5384 61.0474 93.5384 61.6805 93.9289 62.0711C94.3195 62.4616 94.9526 62.4616 95.3431 62.0711L101.707 55.7071ZM2 3.32024C2 2.58583 2.58372 2 3.32598 2V0C1.48382 0 0 1.4766 0 3.32024H2ZM3.32598 2C4.06824 2 4.65196 2.58583 4.65196 3.32024H6.65196C6.65196 1.4766 5.16815 0 3.32598 0V2ZM4.65196 3.32024C4.65196 4.05464 4.06824 4.64047 3.32598 4.64047V6.64047C5.16815 6.64047 6.65196 5.16387 6.65196 3.32024H4.65196ZM3.32598 4.64047C2.58372 4.64047 2 4.05464 2 3.32024H0C0 5.16387 1.48382 6.64047 3.32598 6.64047V4.64047ZM5.65196 4.32024H32.163V2.32024H5.65196V4.32024ZM51.163 23.3202V35H53.163V23.3202H51.163ZM72.163 56H101V54H72.163V56ZM51.163 35C51.163 46.598 60.565 56 72.163 56V54C61.6696 54 53.163 45.4934 53.163 35H51.163ZM32.163 4.32024C42.6564 4.32024 51.163 12.8268 51.163 23.3202H53.163C53.163 11.7223 43.761 2.32024 32.163 2.32024V4.32024Z" fill="#5D5FEF"/>
</svg>
